<svg width="28" height="27" viewBox="0 0 28 27" fill="none" xmlns="http://www.w3.org/2000/svg">
<g clip-path="url(#clip0)" filter="url(#filter0_d)">
<path d="M18.1666 17.5V15.8333C18.1666 14.9493 17.8154 14.1014 17.1903 13.4763C16.5652 12.8512 15.7173 12.5 14.8333 12.5H8.16659C7.28253 12.5 6.43468 12.8512 5.80956 13.4763C5.18444 14.1014 4.83325 14.9493 4.83325 15.8333V17.5" stroke="url(#paint0_linear)" stroke-width="2" stroke-linecap="round" stroke-linejoin="round"/>
<path d="M11.5001 9.16667C13.341 9.16667 14.8334 7.67428 14.8334 5.83333C14.8334 3.99238 13.341 2.5 11.5001 2.5C9.65913 2.5 8.16675 3.99238 8.16675 5.83333C8.16675 7.67428 9.65913 9.16667 11.5001 9.16667Z" stroke="url(#paint1_linear)" stroke-width="2" stroke-linecap="round" stroke-linejoin="round"/>
<path d="M23.1667 17.4999V15.8333C23.1662 15.0947 22.9204 14.3773 22.4679 13.7935C22.0154 13.2098 21.3819 12.7929 20.6667 12.6083" stroke="url(#paint2_linear)" stroke-width="2" stroke-linecap="round" stroke-linejoin="round"/>
<path d="M17.3333 2.60828C18.0503 2.79186 18.6858 3.20886 19.1396 3.79354C19.5935 4.37821 19.8398 5.0973 19.8398 5.83744C19.8398 6.57759 19.5935 7.29668 19.1396 7.88135C18.6858 8.46603 18.0503 8.88303 17.3333 9.06661" stroke="url(#paint3_linear)" stroke-width="2" stroke-linecap="round" stroke-linejoin="round"/>
</g>
<defs>
<filter id="filter0_d" x="0" y="0" width="28" height="28" filterUnits="userSpaceOnUse" color-interpolation-filters="sRGB">
<feFlood flood-opacity="0" result="BackgroundImageFix"/>
<feColorMatrix in="SourceAlpha" type="matrix" values="0 0 0 0 0 0 0 0 0 0 0 0 0 0 0 0 0 0 127 0"/>
<feOffset dy="4"/>
<feGaussianBlur stdDeviation="2"/>
<feColorMatrix type="matrix" values="0 0 0 0 0 0 0 0 0 0 0 0 0 0 0 0 0 0 0.25 0"/>
<feBlend mode="normal" in2="BackgroundImageFix" result="effect1_dropShadow"/>
<feBlend mode="normal" in="SourceGraphic" in2="effect1_dropShadow" result="shape"/>
</filter>
<linearGradient id="paint0_linear" x1="20.7921" y1="4.93616" x2="19.2891" y2="18.9475" gradientUnits="userSpaceOnUse">
<stop stop-color="#5498FF"/>
<stop offset="0.515625" stop-color="#428EFF"/>
<stop offset="1" stop-color="#297FFF"/>
</linearGradient>
<linearGradient id="paint1_linear" x1="16.1462" y1="-7.58512" x2="11.1498" y2="9.88245" gradientUnits="userSpaceOnUse">
<stop stop-color="#5498FF"/>
<stop offset="0.515625" stop-color="#428EFF"/>
<stop offset="1" stop-color="#297FFF"/>
</linearGradient>
<linearGradient id="paint2_linear" x1="23.659" y1="5.20832" x2="17.7498" y2="15.7665" gradientUnits="userSpaceOnUse">
<stop stop-color="#5498FF"/>
<stop offset="0.515625" stop-color="#428EFF"/>
<stop offset="1" stop-color="#297FFF"/>
</linearGradient>
<linearGradient id="paint3_linear" x1="20.3333" y1="-7.16168" x2="11.5905" y2="4.70102" gradientUnits="userSpaceOnUse">
<stop stop-color="#5498FF"/>
<stop offset="0.515625" stop-color="#428EFF"/>
<stop offset="1" stop-color="#297FFF"/>
</linearGradient>
<clipPath id="clip0">
<rect width="20" height="20" fill="white" transform="translate(4)"/>
</clipPath>
</defs>
</svg>
